{
  "accessors": [
    {
      "bufferView": 2,
      "componentType": 5126,
      "count": 1681,
      "max": [
        1.3023921251296997,
        8.5660123825073242,
        2.3775761127471924
      ],
      "min": [
        -3.4560108184814453,
        -0.59147566556930542,
        -2.2892022132873535
      ],
      "type": "VEC3"
    },
    {
      "bufferView": 2,
      "byteOffset": 20172,
      "componentType": 5126,
      "count": 1681,
      "max": [
        0.99999904632568359,
        0.99999129772186279,
        0.9998432993888855
      ],
      "min": [
        -1,
        -0.99999123811721802,
        -0.99993360042572021
      ],
      "type": "VEC3"
    },
    {
      "bufferView": 1,
      "componentType": 5126,
      "count": 1681,
      "max": [
        0.98850655555725098,
        0.98391056060791016
      ],
      "min": [
        0.018123388290405273,
        0.024885237216949463
      ],
      "type": "VEC2"
    },
    {
      "bufferView": 0,
      "componentType": 5125,
      "count": 3528,
      "max": [
        1680
      ],
      "min": [
        0
      ],
      "type": "SCALAR"
    },
    {
      "bufferView": 2,
      "byteOffset": 40344,
      "componentType": 5126,
      "count": 30,
      "max": [
        0.5,
        0.052845492959022522,
        0.5
      ],
      "min": [
        -0.5,
        0,
        -0.5
      ],
      "type": "VEC3"
    },
    {
      "bufferView": 2,
      "byteOffset": 40704,
      "componentType": 5126,
      "count": 30,
      "max": [
        0.1022183895111084,
        1,
        0.076149366796016693
      ],
      "min": [
        -0.13214948773384094,
        0.99102973937988281,
        -0.12375524640083313
      ],
      "type": "VEC3"
    },
    {
      "bufferView": 1,
      "byteOffset": 13448,
      "componentType": 5126,
      "count": 30,
      "max": [
        1,
        1
      ],
      "min": [
        0,
        0
      ],
      "type": "VEC2"
    },
    {
      "bufferView": 1,
      "byteOffset": 13688,
      "componentType": 5126,
      "count": 30,
      "max": [
        1,
        1
      ],
      "min": [
        0,
        0
      ],
      "type": "VEC2"
    },
    {
      "bufferView": 0,
      "byteOffset": 14112,
      "componentType": 5125,
      "count": 120,
      "max": [
        29
      ],
      "min": [
        0
      ],
      "type": "SCALAR"
    },
    {
      "bufferView": 2,
      "byteOffset": 41064,
      "componentType": 5126,
      "count": 264,
      "max": [
        0.50310057401657104,
        0.49552792310714722,
        0.51576453447341919
      ],
      "min": [
        -0.51815372705459595,
        -0.47960376739501953,
        -0.51576089859008789
      ],
      "type": "VEC3"
    },
    {
      "bufferView": 2,
      "byteOffset": 44232,
      "componentType": 5126,
      "count": 264,
      "max": [
        0.97631388902664185,
        0.99981313943862915,
        0.99650853872299194
      ],
      "min": [
        -0.99864095449447632,
        -0.9982222318649292,
        -0.99650686979293823
      ],
      "type": "VEC3"
    },
    {
      "bufferView": 1,
      "byteOffset": 13928,
      "componentType": 5126,
      "count": 264,
      "max": [
        0.875,
        0.99999988079071045
      ],
      "min": [
        0.125,
        0
      ],
      "type": "VEC2"
    },
    {
      "bufferView": 0,
      "byteOffset": 14592,
      "componentType": 5125,
      "count": 396,
      "max": [
        263
      ],
      "min": [
        0
      ],
      "type": "SCALAR"
    }
  ],
  "asset": {
    "extras": {
      "author": "myochii (https://sketchfab.com/myochii)",
      "license": "CC-BY-4.0 (http://creativecommons.org/licenses/by/4.0/)",
      "source": "https://sketchfab.com/3d-models/pine-tree-28db2fc0596348448f648e37cd13eb93",
      "title": "pine tree"
    },
    "generator": "Sketchfab-9.52.0",
    "version": "2.0"
  },
  "bufferViews": [
    {
      "buffer": 0,
      "byteLength": 16176,
      "byteOffset": 0,
      "name": "floatBufferViews",
      "target": 34963
    },
    {
      "buffer": 0,
      "byteLength": 16040,
      "byteOffset": 16176,
      "byteStride": 8,
      "name": "floatBufferViews",
      "target": 34962
    },
    {
      "buffer": 0,
      "byteLength": 47400,
      "byteOffset": 32216,
      "byteStride": 12,
      "name": "floatBufferViews",
      "target": 34962
    }
  ],
  "buffers": [
    {
      "byteLength": 79616,
      "uri": "scene.bin"
    }
  ],
  "images": [
    {
      "uri": "textures/lambert1_baseColor.png"
    },
    {
      "uri": "textures/lambert2_baseColor.png"
    }
  ],
  "materials": [
    {
      "doubleSided": true,
      "emissiveFactor": [
        0,
        0,
        0
      ],
      "name": "lambert1",
      "pbrMetallicRoughness": {
        "baseColorFactor": [
          1,
          1,
          1,
          1
        ],
        "baseColorTexture": {
          "index": 0,
          "texCoord": 0
        },
        "metallicFactor": 0,
        "roughnessFactor": 0.59999999999999998
      }
    },
    {
      "alphaMode": "BLEND",
      "doubleSided": true,
      "emissiveFactor": [
        0,
        0,
        0
      ],
      "name": "lambert2",
      "pbrMetallicRoughness": {
        "baseColorFactor": [
          1,
          1,
          1,
          1
        ],
        "baseColorTexture": {
          "index": 1,
          "texCoord": 0
        },
        "metallicFactor": 0,
        "roughnessFactor": 0.59999999999999998
      }
    },
    {
      "doubleSided": true,
      "emissiveFactor": [
        0,
        0,
        0
      ],
      "name": "lambert3",
      "pbrMetallicRoughness": {
        "baseColorFactor": [
          0.51964900000000003,
          0.54966099999999996,
          0.56299999999999994,
          1
        ],
        "metallicFactor": 0,
        "roughnessFactor": 0.71252181262122338
      }
    }
  ],
  "meshes": [
    {
      "name": "group3_pasted__group1_pasted__pasted__pCone1_lambert1_0",
      "primitives": [
        {
          "attributes": {
            "NORMAL": 1,
            "POSITION": 0,
            "TEXCOORD_0": 2
          },
          "indices": 3,
          "material": 0,
          "mode": 4
        }
      ]
    },
    {
      "name": "pPlane1_lambert2_0",
      "primitives": [
        {
          "attributes": {
            "NORMAL": 5,
            "POSITION": 4,
            "TEXCOORD_0": 6,
            "TEXCOORD_1": 7
          },
          "indices": 8,
          "material": 1,
          "mode": 4
        }
      ]
    },
    {
      "name": "pCube3_lambert3_0",
      "primitives": [
        {
          "attributes": {
            "NORMAL": 10,
            "POSITION": 9,
            "TEXCOORD_0": 11
          },
          "indices": 12,
          "material": 2,
          "mode": 4
        }
      ]
    }
  ],
  "nodes": [
    {
      "children": [
        1
      ],
      "name": "RootNode (gltf orientation matrix)",
      "rotation": [
        -0.70710678118654746,
        -0,
        -0,
        0.70710678118654757
      ]
    },
    {
      "children": [
        2
      ],
      "name": "RootNode (model correction matrix)"
    },
    {
      "children": [
        3
      ],
      "matrix": [
        1,
        0,
        0,
        0,
        0,
        0,
        1,
        0,
        0,
        -1,
        0,
        0,
        0,
        0,
        0,
        1
      ],
      "name": "269b549831cb45e192d009505178a374.fbx"
    },
    {
      "children": [
        4,
        6,
        8
      ],
      "name": "RootNode"
    },
    {
      "children": [
        5
      ],
      "matrix": [
        1,
        0,
        0,
        0,
        0,
        1,
        0,
        0,
        0,
        0,
        1,
        0,
        0,
        0.65532660484313965,
        0,
        1
      ],
      "name": "group3_pasted__group1_pasted__pasted__pCone1"
    },
    {
      "mesh": 0,
      "name": "group3_pasted__group1_pasted__pasted__pCone1_lambert1_0"
    },
    {
      "children": [
        7
      ],
      "matrix": [
        6.7645754814147949,
        0,
        0,
        0,
        0,
        6.7645754814147949,
        0,
        0,
        0,
        0,
        6.7645754814147949,
        0,
        -0.70272886753082275,
        0.057553987950086594,
        0.10722161829471588,
        1
      ],
      "name": "pPlane1"
    },
    {
      "mesh": 1,
      "name": "pPlane1_lambert2_0"
    },
    {
      "children": [
        9
      ],
      "matrix": [
        0.69684386253356934,
        0,
        0,
        0,
        0,
        0.69684386253356934,
        0,
        0,
        0,
        0,
        0.69684386253356934,
        0,
        -0.84491062164306641,
        0.36764264106750488,
        0.1775786280632019,
        1
      ],
      "name": "pCube3"
    },
    {
      "mesh": 2,
      "name": "pCube3_lambert3_0"
    }
  ],
  "samplers": [
    {
      "magFilter": 9729,
      "minFilter": 9987,
      "wrapS": 10497,
      "wrapT": 10497
    }
  ],
  "scene": 0,
  "scenes": [
    {
      "name": "OSG_Scene",
      "nodes": [
        0
      ]
    }
  ],
  "textures": [
    {
      "sampler": 0,
      "source": 0
    },
    {
      "sampler": 0,
      "source": 1
    }
  ]
}

